#!OML:ASF I:\Actors\actors\Patient Classification 1\Patient 1\Session 1\Subject1.ASF
:FULLY-SPECIFIED
:DEGREES
685
root 0.591266 17.5383 8.79392 34.2546 12.4389 -7.28653
lowerback 14.4509 1.03171 6.42227
upperback 0.977977 2.55632 2.0895
thorax -6.89137 1.07651 -1.913
lowerneck 7.52039 -3.2239 -1.47995
upperneck 0.706247 -4.40199 -1.24531
head -1.02685 -2.16147 -0.00333311
rclavicle -3.85642e-014 -2.22639e-014
rhumerus 20.1478 36.0063 -47.8675
rradius 91.7979
rwrist 18.8719
rhand 1.07089 -30.7239
rfingers 7.12502
rthumb 26.6157 -58.8733
lclavicle -3.85642e-014 -2.22639e-014
lhumerus 37.3872 -49.7956 36.6415
lradius 79.5644
lwrist -3.97572
lhand -43.5017 -13.6901
lfingers 7.12502
lthumb -16.3414 15.6414
rfemur -30.4669 37.5644 1.68338
rtibia -3.13441
rfoot -37.907 -46.5766
rtoes 38.1676
lfemur -45.3401 -54.9853 33.1431
ltibia -5.79046
lfoot -50.7488 60.5489
ltoes 35.8802
686
root 0.590992 17.5383 8.79219 34.3745 12.4816 -7.3169
lowerback 14.5438 1.00398 6.35744
upperback 1.0582 2.50773 2.031
thorax -6.86039 1.0563 -1.93124
lowerneck 7.79441 -3.2013 -1.14213
upperneck -0.615427 -4.35529 -0.489892
head -1.48889 -2.14531 0.194891
rclavicle 5.96354e-015 1.03368e-014
rhumerus 20.5386 36.2017 -47.3228
rradius 91.8339
rwrist 18.3852
rhand 0.894282 -31.0042
rfingers 7.12502
rthumb 26.4467 -59.179
lclavicle 5.96354e-015 1.03368e-014
lhumerus 37.4544 -49.6816 36.547
lradius 79.6261
lwrist -3.91837
lhand -43.3524 -13.5352
lfingers 7.12502
lthumb -16.1977 15.808
rfemur -30.5971 37.5133 1.63781
rtibia -3.1702
rfoot -38.169 -46.4127
rtoes 38.6041
lfemur -45.4949 -54.8783 33.3473
ltibia -5.85652
lfoot -50.5228 60.6669
ltoes 35.7608
687
root 0.591428 17.5374 8.78976 34.4806 12.4973 -7.36462
lowerback 14.6379 1.05695 6.37215
upperback 1.16694 2.57805 1.99431
thorax -6.78783 1.09333 -1.99351
lowerneck 7.9442 -3.2001 -1.13819
upperneck -1.91818 -4.33686 0.488097
head -1.91893 -2.15698 0.521323
rclavicle -1.45113e-014 -2.56432e-014
rhumerus 20.3292 35.9349 -47.4051
rradius 91.9261
rwrist 18.3754
rhand 0.96024 -30.9051
rfingers 7.12502
rthumb 26.5098 -59.0704
lclavicle -1.45113e-014 -2.56432e-014
lhumerus 37.7164 -49.6074 36.4946
lradius 79.7409
lwrist -3.8484
lhand -43.319 -13.3986
lfingers 7.12502
lthumb -16.1656 15.9473
rfemur -30.7573 37.4911 1.5829
rtibia -3.19171
rfoot -38.114 -46.4622
rtoes 38.5848
lfemur -45.6141 -54.7509 33.52
ltibia -5.91216
lfoot -50.305 60.769
ltoes 35.6614
688
root 0.592046 17.5357 8.78659 34.5973 12.4965 -7.43846
lowerback 14.7063 1.19189 6.53231
upperback 1.29672 2.77221 1.90761
thorax -6.65887 1.18769 -2.21308
lowerneck 7.85681 -3.25271 -1.30265
upperneck -3.11674 -4.37256 1.68934
head -2.27032 -2.20878 0.950027
rclavicle -2.78299e-015 2.56432e-014
rhumerus 19.5167 35.1445 -48.2172
rradius 92.0756
rwrist 18.881
rhand 1.17532 -30.5009
rfingers 7.12502
rthumb 26.7156 -58.635
lclavicle -2.78299e-015 2.56432e-014
lhumerus 38.3324 -49.6206 36.248
lradius 79.899
lwrist -3.77937
lhand -43.3048 -13.339
lfingers 7.12502
lthumb -16.1519 16.008
rfemur -30.9706 37.4861 1.51433
rtibia -3.18534
rfoot -38.0666 -46.4971
rtoes 38.6351
lfemur -45.7326 -54.5654 33.7181
ltibia -5.9701
lfoot -50.2851 60.7772
ltoes 35.691
689
root 0.592423 17.5335 8.78381 34.7182 12.4924 -7.49625
lowerback 14.7649 1.25332 6.58317
upperback 1.38086 2.85336 1.80979
thorax -6.58634 1.228 -2.36168
lowerneck 7.84907 -3.24523 -1.39675
upperneck -4.33359 -4.2988 2.88647
head -2.65329 -2.21447 1.3735
rclavicle -1.80894e-014 -2.3059e-014
rhumerus 18.1836 34.0158 -50.3259
rradius 92.23
rwrist 20.1193
rhand 1.82329 -29.591
rfingers 7.12502
rthumb 27.3356 -57.6289
lclavicle -1.80894e-014 -2.3059e-014
lhumerus 38.6082 -49.5937 36.1173
lradius 80.0303
lwrist -3.80738
lhand -43.1433 -13.2213
lfingers 7.12502
lthumb -15.9963 16.1383
rfemur -31.1761 37.4791 1.43777
rtibia -3.17312
rfoot -38.0153 -46.5116
rtoes 38.6067
lfemur -45.8582 -54.3989 33.8901
ltibia -5.99689
lfoot -50.2996 60.7687
ltoes 35.7327
